<?xml version="1.0" standalone="no"?><!DOCTYPE svg PUBLIC "-//W3C//DTD SVG 1.1//EN" "http://www.w3.org/Graphics/SVG/1.1/DTD/svg11.dtd"><svg t="1684134195525" class="icon" viewBox="0 0 1024 1024" version="1.1" xmlns="http://www.w3.org/2000/svg" p-id="3819" xmlns:xlink="http://www.w3.org/1999/xlink" width="200" height="200"><path d="M341.333333 230.4c0-9.386667 7.68-17.066667 17.066667-17.066667h51.2c9.386667 0 17.066667 7.68 17.066667 17.066667v51.2a17.066667 17.066667 0 0 1-17.066667 17.066667H358.4a17.066667 17.066667 0 0 1-17.066667-17.066667V230.4zM597.333333 230.4c0-9.386667 7.68-17.066667 17.066667-17.066667h51.2c9.386667 0 17.066667 7.68 17.066667 17.066667v51.2a17.066667 17.066667 0 0 1-17.066667 17.066667h-51.2a17.066667 17.066667 0 0 1-17.066667-17.066667V230.4zM341.333333 401.066667c0-9.386667 7.68-17.066667 17.066667-17.066667h51.2c9.386667 0 17.066667 7.68 17.066667 17.066667v51.2a17.066667 17.066667 0 0 1-17.066667 17.066666H358.4a17.066667 17.066667 0 0 1-17.066667-17.066666V401.066667zM597.333333 401.066667c0-9.386667 7.68-17.066667 17.066667-17.066667h51.2c9.386667 0 17.066667 7.68 17.066667 17.066667v51.2a17.066667 17.066667 0 0 1-17.066667 17.066666h-51.2a17.066667 17.066667 0 0 1-17.066667-17.066666V401.066667zM341.333333 571.733333c0-9.386667 7.68-17.066667 17.066667-17.066666h51.2c9.386667 0 17.066667 7.68 17.066667 17.066666v51.2a17.066667 17.066667 0 0 1-17.066667 17.066667H358.4a17.066667 17.066667 0 0 1-17.066667-17.066667v-51.2zM597.333333 571.733333c0-9.386667 7.68-17.066667 17.066667-17.066666h51.2c9.386667 0 17.066667 7.68 17.066667 17.066666v51.2a17.066667 17.066667 0 0 1-17.066667 17.066667h-51.2a17.066667 17.066667 0 0 1-17.066667-17.066667v-51.2zM341.333333 742.4c0-9.386667 7.68-17.066667 17.066667-17.066667h51.2c9.386667 0 17.066667 7.68 17.066667 17.066667v51.2a17.066667 17.066667 0 0 1-17.066667 17.066667H358.4a17.066667 17.066667 0 0 1-17.066667-17.066667v-51.2zM597.333333 742.4c0-9.386667 7.68-17.066667 17.066667-17.066667h51.2c9.386667 0 17.066667 7.68 17.066667 17.066667v51.2a17.066667 17.066667 0 0 1-17.066667 17.066667h-51.2a17.066667 17.066667 0 0 1-17.066667-17.066667v-51.2z" fill="#4589FA" p-id="3820"></path></svg>