<?xml version="1.0" standalone="no"?><!DOCTYPE svg PUBLIC "-//W3C//DTD SVG 1.1//EN" "http://www.w3.org/Graphics/SVG/1.1/DTD/svg11.dtd"><svg t="1683881524284" class="icon" viewBox="0 0 1024 1024" version="1.1" xmlns="http://www.w3.org/2000/svg" p-id="2284" xmlns:xlink="http://www.w3.org/1999/xlink" width="200" height="200"><path d="M842 62H182c-66 0-120 54-120 120v660c0 66 54 120 120 120h660c66 0 120-54 120-120V182c0-66-54-120-120-120z m30 750c0 33-27 60-60 60H212c-33 0-60-27-60-60V212c0-33 27-60 60-60h600c33 0 60 27 60 60v600z" fill="#666666" p-id="2285"></path><path d="M662 302H362c-33 0-60 27-60 60v300c0 33 27 60 60 60h300c33 0 60-27 60-60V362c0-33-27-60-60-60z" fill="#666666" p-id="2286"></path></svg>