<svg t="1693881680983" class="icon" viewBox="0 0 1024 1024" version="1.1" xmlns="http://www.w3.org/2000/svg" p-id="5037" width="200" height="200"><path d="M449 349H158.9c-52.9 0-96-43.1-96-96v-61c0-52.9 43.1-96 96-96H449c52.9 0 96 43.1 96 96v61c0 52.9-43.1 96-96 96zM158.9 160c-17.6 0-32 14.4-32 32v61c0 17.6 14.4 32 32 32H449c17.6 0 32-14.4 32-32v-61c0-17.6-14.4-32-32-32H158.9z" p-id="5038" fill="#666666"></path><path d="M449 541.6H158.9c-52.9 0-96-43.1-96-96v-61c0-52.9 43.1-96 96-96H449c52.9 0 96 43.1 96 96v61c0 52.9-43.1 96-96 96z m-290.1-189c-17.6 0-32 14.4-32 32v61c0 17.6 14.4 32 32 32H449c17.6 0 32-14.4 32-32v-61c0-17.6-14.4-32-32-32H158.9z" p-id="5039" fill="#666666"></path><path d="M449 734.2H158.9c-52.9 0-96-43.1-96-96v-61c0-52.9 43.1-96 96-96H449c52.9 0 96 43.1 96 96v61c0 52.9-43.1 96-96 96z m-290.1-189c-17.6 0-32 14.4-32 32v61c0 17.6 14.4 32 32 32H449c17.6 0 32-14.4 32-32v-61c0-17.6-14.4-32-32-32H158.9z" p-id="5040" fill="#666666"></path><path d="M449 926.8H158.9c-52.9 0-96-43.1-96-96v-61c0-52.9 43.1-96 96-96H449c52.9 0 96 43.1 96 96v61c0 52.9-43.1 96-96 96zM158.9 737.7c-17.6 0-32 14.4-32 32v61c0 17.6 14.4 32 32 32H449c17.6 0 32-14.4 32-32v-61c0-17.6-14.4-32-32-32H158.9zM820.8 924c-24.6 0-49.2-9.4-67.9-28.1L547.8 690.8c-37.4-37.4-37.4-98.3 0-135.8l43.1-43.1c37.4-37.4 98.3-37.4 135.8 0L931.8 717c37.4 37.4 37.4 98.3 0 135.8l-43.1 43.1C870 914.6 845.4 924 820.8 924z m-22.6-73.4c12.5 12.5 32.8 12.5 45.3 0l43.1-43.1c12.5-12.5 12.5-32.8 0-45.3L681.5 557.1c-12.5-12.5-32.8-12.5-45.3 0l-43.1 43.1c-12.5 12.5-12.5 32.8 0 45.3l205.1 205.1z" p-id="5041" fill="#666666"></path></svg>
